<mxfile host="app.diagrams.net" agent="Mozilla/5.0 (Windows NT 10.0; Win64; x64) AppleWebKit/537.36 (KHTML, like Gecko) Chrome/131.0.0.0 Safari/537.36" version="24.8.4">
  <diagram name="第 1 页" id="TGbYw6AIcAHWaOiQg0G8">
    <mxGraphModel dx="1260" dy="652" grid="1" gridSize="10" guides="1" tooltips="1" connect="1" arrows="1" fold="1" page="1" pageScale="1" pageWidth="827" pageHeight="1169" math="0" shadow="0">
      <root>
        <mxCell id="0" />
        <mxCell id="1" parent="0" />
        <mxCell id="AuCiWP_dqj8KUEPQUSfH-3" value="" style="shape=image;verticalLabelPosition=bottom;labelBackgroundColor=default;verticalAlign=top;aspect=fixed;imageAspect=0;image=https://miro.medium.com/v2/resize:fit:770/1*VM94wVftxP7wkiKo4BjfLA.png;clipPath=inset(9.79% 9.67% 0% 0%);" vertex="1" parent="1">
          <mxGeometry x="230" y="186" width="770" height="248.62541053175394" as="geometry" />
        </mxCell>
        <mxCell id="AuCiWP_dqj8KUEPQUSfH-4" value="&lt;font style=&quot;font-size: 19px;&quot;&gt;FC&lt;/font&gt;" style="rounded=0;whiteSpace=wrap;html=1;fillColor=#d5e8d4;strokeColor=#91BD7B;strokeWidth=2;fontStyle=1;textDirection=vertical-rl;rotation=-180;" vertex="1" parent="1">
          <mxGeometry x="1070" y="240" width="40" height="80" as="geometry" />
        </mxCell>
        <mxCell id="AuCiWP_dqj8KUEPQUSfH-13" value="&lt;font style=&quot;font-size: 16px;&quot;&gt;1000&lt;/font&gt;" style="text;html=1;align=center;verticalAlign=middle;whiteSpace=wrap;rounded=0;fontStyle=1" vertex="1" parent="1">
          <mxGeometry x="966" y="345" width="30" height="45.37" as="geometry" />
        </mxCell>
        <mxCell id="AuCiWP_dqj8KUEPQUSfH-14" value="&lt;font style=&quot;font-size: 16px;&quot;&gt;120&lt;/font&gt;" style="text;html=1;align=center;verticalAlign=middle;whiteSpace=wrap;rounded=0;fontStyle=1" vertex="1" parent="1">
          <mxGeometry x="1075" y="320" width="30" height="45.37" as="geometry" />
        </mxCell>
        <mxCell id="AuCiWP_dqj8KUEPQUSfH-18" value="" style="endArrow=classic;html=1;rounded=0;entryX=1;entryY=1;entryDx=0;entryDy=0;exitX=0.999;exitY=0.061;exitDx=0;exitDy=0;exitPerimeter=0;" edge="1" parent="1" source="AuCiWP_dqj8KUEPQUSfH-3" target="AuCiWP_dqj8KUEPQUSfH-4">
          <mxGeometry width="50" height="50" relative="1" as="geometry">
            <mxPoint x="1030" y="180" as="sourcePoint" />
            <mxPoint x="800" y="90" as="targetPoint" />
          </mxGeometry>
        </mxCell>
        <mxCell id="AuCiWP_dqj8KUEPQUSfH-20" value="" style="endArrow=classic;html=1;rounded=0;entryX=1;entryY=0.5;entryDx=0;entryDy=0;exitX=0.999;exitY=0.061;exitDx=0;exitDy=0;exitPerimeter=0;" edge="1" parent="1" target="AuCiWP_dqj8KUEPQUSfH-4">
          <mxGeometry width="50" height="50" relative="1" as="geometry">
            <mxPoint x="999" y="201" as="sourcePoint" />
            <mxPoint x="1070" y="240" as="targetPoint" />
          </mxGeometry>
        </mxCell>
        <mxCell id="AuCiWP_dqj8KUEPQUSfH-21" value="" style="endArrow=classic;html=1;rounded=0;entryX=1;entryY=0;entryDx=0;entryDy=0;exitX=0.999;exitY=0.061;exitDx=0;exitDy=0;exitPerimeter=0;" edge="1" parent="1" target="AuCiWP_dqj8KUEPQUSfH-4">
          <mxGeometry width="50" height="50" relative="1" as="geometry">
            <mxPoint x="1000" y="201" as="sourcePoint" />
            <mxPoint x="1071" y="240" as="targetPoint" />
          </mxGeometry>
        </mxCell>
        <mxCell id="AuCiWP_dqj8KUEPQUSfH-22" value="" style="endArrow=classic;html=1;rounded=0;entryX=1;entryY=1;entryDx=0;entryDy=0;exitX=1;exitY=0.25;exitDx=0;exitDy=0;" edge="1" parent="1" source="AuCiWP_dqj8KUEPQUSfH-3" target="AuCiWP_dqj8KUEPQUSfH-4">
          <mxGeometry width="50" height="50" relative="1" as="geometry">
            <mxPoint x="1040" y="200" as="sourcePoint" />
            <mxPoint x="790" y="80" as="targetPoint" />
          </mxGeometry>
        </mxCell>
        <mxCell id="AuCiWP_dqj8KUEPQUSfH-23" value="" style="endArrow=classic;html=1;rounded=0;entryX=1;entryY=0.5;entryDx=0;entryDy=0;exitX=1;exitY=0.25;exitDx=0;exitDy=0;" edge="1" parent="1" target="AuCiWP_dqj8KUEPQUSfH-4">
          <mxGeometry width="50" height="50" relative="1" as="geometry">
            <mxPoint x="1000" y="248" as="sourcePoint" />
            <mxPoint x="1070" y="240" as="targetPoint" />
          </mxGeometry>
        </mxCell>
        <mxCell id="AuCiWP_dqj8KUEPQUSfH-24" value="" style="endArrow=classic;html=1;rounded=0;entryX=1;entryY=0;entryDx=0;entryDy=0;exitX=1;exitY=0.25;exitDx=0;exitDy=0;" edge="1" parent="1" target="AuCiWP_dqj8KUEPQUSfH-4">
          <mxGeometry width="50" height="50" relative="1" as="geometry">
            <mxPoint x="1000" y="248" as="sourcePoint" />
            <mxPoint x="1070" y="240" as="targetPoint" />
          </mxGeometry>
        </mxCell>
        <mxCell id="AuCiWP_dqj8KUEPQUSfH-25" value="" style="endArrow=classic;html=1;rounded=0;exitX=1;exitY=0.5;exitDx=0;exitDy=0;entryX=1;entryY=1;entryDx=0;entryDy=0;" edge="1" parent="1" source="AuCiWP_dqj8KUEPQUSfH-3" target="AuCiWP_dqj8KUEPQUSfH-4">
          <mxGeometry width="50" height="50" relative="1" as="geometry">
            <mxPoint x="740" y="130" as="sourcePoint" />
            <mxPoint x="790" y="80" as="targetPoint" />
          </mxGeometry>
        </mxCell>
        <mxCell id="AuCiWP_dqj8KUEPQUSfH-26" value="" style="endArrow=classic;html=1;rounded=0;exitX=1;exitY=0.5;exitDx=0;exitDy=0;entryX=1;entryY=0.5;entryDx=0;entryDy=0;" edge="1" parent="1" target="AuCiWP_dqj8KUEPQUSfH-4">
          <mxGeometry width="50" height="50" relative="1" as="geometry">
            <mxPoint x="1000" y="310" as="sourcePoint" />
            <mxPoint x="1070" y="240" as="targetPoint" />
          </mxGeometry>
        </mxCell>
        <mxCell id="AuCiWP_dqj8KUEPQUSfH-27" value="" style="endArrow=classic;html=1;rounded=0;exitX=1;exitY=0.5;exitDx=0;exitDy=0;entryX=1;entryY=0;entryDx=0;entryDy=0;" edge="1" parent="1" target="AuCiWP_dqj8KUEPQUSfH-4">
          <mxGeometry width="50" height="50" relative="1" as="geometry">
            <mxPoint x="1000" y="310" as="sourcePoint" />
            <mxPoint x="1070" y="240" as="targetPoint" />
          </mxGeometry>
        </mxCell>
        <mxCell id="AuCiWP_dqj8KUEPQUSfH-28" value="" style="endArrow=classic;html=1;rounded=0;entryX=1;entryY=1;entryDx=0;entryDy=0;exitX=0.999;exitY=0.661;exitDx=0;exitDy=0;exitPerimeter=0;" edge="1" parent="1" source="AuCiWP_dqj8KUEPQUSfH-3" target="AuCiWP_dqj8KUEPQUSfH-4">
          <mxGeometry width="50" height="50" relative="1" as="geometry">
            <mxPoint x="1020" y="349" as="sourcePoint" />
            <mxPoint x="790" y="80" as="targetPoint" />
          </mxGeometry>
        </mxCell>
        <mxCell id="AuCiWP_dqj8KUEPQUSfH-29" value="" style="endArrow=classic;html=1;rounded=0;entryX=1;entryY=0.5;entryDx=0;entryDy=0;exitX=0.999;exitY=0.661;exitDx=0;exitDy=0;exitPerimeter=0;" edge="1" parent="1" target="AuCiWP_dqj8KUEPQUSfH-4">
          <mxGeometry width="50" height="50" relative="1" as="geometry">
            <mxPoint x="1000" y="350" as="sourcePoint" />
            <mxPoint x="1071" y="240" as="targetPoint" />
          </mxGeometry>
        </mxCell>
        <mxCell id="AuCiWP_dqj8KUEPQUSfH-30" value="" style="endArrow=classic;html=1;rounded=0;entryX=1;entryY=0;entryDx=0;entryDy=0;exitX=0.999;exitY=0.661;exitDx=0;exitDy=0;exitPerimeter=0;" edge="1" parent="1" target="AuCiWP_dqj8KUEPQUSfH-4">
          <mxGeometry width="50" height="50" relative="1" as="geometry">
            <mxPoint x="1000" y="350" as="sourcePoint" />
            <mxPoint x="1071" y="240" as="targetPoint" />
          </mxGeometry>
        </mxCell>
      </root>
    </mxGraphModel>
  </diagram>
</mxfile>
